<svg id="Calque_1" data-name="Calque 1" xmlns="http://www.w3.org/2000/svg" viewBox="0 0 1297.64 168.7"><defs><style>.cls-1{fill:#f6f6f6;}.cls-2{fill:#e42836;}</style></defs><path class="cls-1" d="M1183.71,64.68V69.2c0,1.46.29,2.19,1.46,2.19.87,0,1.46-.59,1.46-2V64.54h1.89v5.1c0,.73,0,3.06-3.21,3.06-1.89,0-3.49-.88-3.49-3.06v-5h1.89"/><polyline class="cls-1" points="1190.56 64.68 1192.31 64.68 1195.66 69.34 1195.66 69.34 1195.66 64.68 1197.26 64.68 1197.26 72.55 1195.51 72.55 1192.16 67.74 1192.16 67.74 1192.16 72.55 1190.56 72.55 1190.56 64.68"/><rect class="cls-1" x="1199.45" y="64.68" width="2.04" height="7.87"/><polyline class="cls-1" points="1203.09 64.68 1205.42 64.68 1207.46 70.36 1207.46 70.36 1209.5 64.68 1210.81 64.68 1208.04 72.55 1206 72.55 1203.09 64.68"/><polyline class="cls-1" points="1212.27 64.68 1217.66 64.68 1217.66 66 1214.45 66 1214.45 67.89 1217.07 67.89 1217.07 69.05 1214.45 69.05 1214.45 71.24 1217.95 71.24 1217.95 72.55 1212.27 72.55 1212.27 64.68"/><path class="cls-1" d="M1219.84,64.68h3.79a2,2,0,0,1,2.18,2,2.25,2.25,0,0,1-1.45,2.19l2.47,3.64h-2.47l-1.75-3.2h-.73v3.2h-2V64.68m1.9,3.5h.72a1.28,1.28,0,0,0,1.17-1.31c0-.58-.29-.88-1.17-.88h-.58v2.19Z"/><path class="cls-1" d="M1227.85,71a5.9,5.9,0,0,0,2.19.44c.58,0,1.31-.15,1.31-.88,0-1.31-3.5-1.46-3.5-3.93,0-1.61,1.46-2.19,2.77-2.19a13.25,13.25,0,0,1,2.33.29v1.46a4.66,4.66,0,0,0-2-.44c-.43,0-1,.15-1,.73,0,1.17,3.65,1.31,3.65,3.94,0,.72-.44,2.33-3.21,2.33-1,0-1.89-.15-2.48-.15V71"/><rect class="cls-1" x="1235.14" y="64.68" width="2.04" height="7.87"/><polyline class="cls-1" points="1241.55 66 1238.78 66 1238.78 64.68 1246.5 64.68 1246.5 66 1243.73 66 1243.73 72.55 1241.55 72.55 1241.55 66"/><path class="cls-1" d="M1248,64.68h5.39V66H1250v1.9h2.77v1.16H1250v2.19h3.49v1.31h-5.68V64.68m2.92-2.18h1.6l-1.6,1.6h-1.17Z"/><path class="cls-1" d="M1181.53,80.27H1185c1.46,0,2.33.58,2.33,2a2.6,2.6,0,0,1-2.76,2.77h-1.17v3.06h-2V80.27m2.19,3.64c.72,0,1.74-.14,1.74-1.45a1,1,0,0,0-1.16-1,.88.88,0,0,0-.58.14Z"/><path class="cls-1" d="M1190.41,80.27h2l3.06,7.87h-2.18l-.73-2h-3.06l-.73,2h-1.46l3.06-7.87m1.75,4.66-1-2.76-1,2.76Z"/><path class="cls-1" d="M1197,80.27h3.79a2,2,0,0,1,2.18,2,2.25,2.25,0,0,1-1.45,2.19l2.47,3.64h-2.47l-1.75-3.21H1199v3.21h-2V80.27m2,3.5h.73a1.27,1.27,0,0,0,1.16-1.31c0-.59-.29-.88-1.16-.88h-.59v2.19Z"/><rect class="cls-1" x="1205.42" y="80.27" width="2.04" height="7.87"/><path class="cls-1" d="M1209.5,86.54a5.87,5.87,0,0,0,2.18.43c.59,0,1.31-.14,1.31-.87,0-1.31-3.49-1.46-3.49-3.93,0-1.61,1.46-2.19,2.77-2.19a13.37,13.37,0,0,1,2.33.29v1.46a4.69,4.69,0,0,0-2-.44c-.44,0-1,.15-1,.73,0,1.17,3.64,1.31,3.64,3.93,0,.73-.44,2.33-3.21,2.33-1,0-1.89-.14-2.47-.14v-1.6"/><rect class="cls-1" x="1216.2" y="84.21" width="2.33" height="1.17"/><polyline class="cls-1" points="1220.42 80.27 1225.82 80.27 1225.82 81.58 1222.46 81.58 1222.46 83.48 1225.23 83.48 1225.23 84.64 1222.46 84.64 1222.46 86.83 1225.96 86.83 1225.96 88.14 1220.42 88.14 1220.42 80.27"/><path class="cls-1" d="M1227.42,86.54a5.84,5.84,0,0,0,2.18.43c.59,0,1.31-.14,1.31-.87,0-1.31-3.49-1.46-3.49-3.93,0-1.61,1.45-2.19,2.77-2.19a13.37,13.37,0,0,1,2.33.29v1.46a4.69,4.69,0,0,0-2-.44c-.44,0-1,.15-1,.73,0,1.17,3.64,1.31,3.64,3.93,0,.73-.44,2.33-3.21,2.33-1,0-1.89-.14-2.47-.14v-1.6"/><polyline class="cls-1" points="1236.74 81.58 1233.97 81.58 1233.97 80.27 1241.69 80.27 1241.69 81.58 1238.93 81.58 1238.93 88.14 1236.74 88.14 1236.74 81.58"/><path class="cls-1" d="M1253.93,81.87a6.61,6.61,0,0,0-2.33-.43c-1.89,0-2.48,1.31-2.48,2.77,0,1.74.88,2.91,2.77,2.91a6.88,6.88,0,0,0,2.33-.58V88a9.39,9.39,0,0,1-2.91.44c-2.62,0-4.23-1.46-4.23-4.08s1.75-4.08,4.23-4.08a16.82,16.82,0,0,1,2.77.29v1.31"/><path class="cls-1" d="M1255.83,80.27h3.78a2,2,0,0,1,2.19,2,2.24,2.24,0,0,1-1.46,2.19l2.48,3.64h-2.48l-1.75-3.21h-.72v3.21h-2V80.27m1.89,3.5h.73a1.27,1.27,0,0,0,1.16-1.31c0-.59-.29-.88-1.16-.88h-.58v2.19Z"/><path class="cls-1" d="M1264.13,80.27h5.39v1.31h-3.35v1.9h2.77v1.16h-2.77v2.19h3.5v1.31h-5.54V80.27m2.77-2h1.6l-1.46,1.6h-1.31Z"/><polyline class="cls-1" points="1273.74 81.58 1270.83 81.58 1270.83 80.27 1278.7 80.27 1278.7 81.58 1275.78 81.58 1275.78 88.14 1273.74 88.14 1273.74 81.58"/><polyline class="cls-1" points="1280.15 80.27 1285.55 80.27 1285.55 81.58 1282.19 81.58 1282.19 83.48 1284.96 83.48 1284.96 84.64 1282.19 84.64 1282.19 86.83 1285.84 86.83 1285.84 88.14 1280.15 88.14 1280.15 80.27"/><rect class="cls-1" x="1287.58" y="80.27" width="2.04" height="7.87"/><polyline class="cls-1" points="1291.95 80.27 1294.14 80.27 1294.14 86.83 1297.64 86.83 1297.64 88.14 1291.95 88.14 1291.95 80.27"/><polyline class="cls-1" points="1180.8 95.86 1182.98 95.86 1185.02 101.69 1185.17 101.69 1187.21 95.86 1188.52 95.86 1185.75 103.73 1183.71 103.73 1180.8 95.86"/><path class="cls-1" d="M1191.43,95.86h2l3.06,7.87h-2.18l-.73-2h-3.06l-.73,2h-1.46l3.06-7.87m1.75,4.66-1-2.77-1,2.77Z"/><polyline class="cls-1" points="1197.99 95.86 1200.17 95.86 1200.17 102.56 1203.67 102.56 1203.67 103.73 1197.99 103.73 1197.99 95.86"/><path class="cls-1" d="M1209.5,95.86h4.37a3.46,3.46,0,0,1,3.35,3.79c0,2.77-1.6,4.08-3.64,4.08h-3.94V95.86m1.9,6.56c.29,0,.73.14,1,.14,1.75,0,2.33-1.31,2.33-2.77,0-1.16-.29-2.62-2.19-2.62h-1v5.25Z"/><polyline class="cls-1" points="1218.82 95.86 1224.21 95.86 1224.21 97.17 1220.86 97.17 1220.86 99.21 1223.63 99.21 1223.63 100.38 1220.86 100.38 1220.86 102.56 1224.5 102.56 1224.5 103.73 1218.82 103.73 1218.82 95.86"/><polyline class="cls-1" points="1230.48 95.86 1233.24 95.86 1234.85 100.96 1234.85 100.96 1236.6 95.86 1238.93 95.86 1238.93 103.73 1237.03 103.73 1237.03 98.34 1237.03 98.34 1235.28 103.29 1233.68 103.29 1232.08 98.19 1232.08 98.19 1232.08 103.73 1230.48 103.73 1230.48 95.86"/><path class="cls-1" d="M1243.44,95.86h2l3.06,7.87h-2.18l-.73-2h-3.06l-.73,2h-1.46l3.06-7.87m1.75,4.66-1-2.77-1,2.77Z"/><path class="cls-1" d="M1250,95.86h3.79a2,2,0,0,1,2.18,2,2.23,2.23,0,0,1-1.46,2.18l2.48,3.65h-2.48l-1.74-3.21H1252v3.21h-2V95.86m2,3.64h.73a1.28,1.28,0,0,0,1.16-1.31c0-.58-.29-.87-1.16-.87h-.59V99.5Z"/><polyline class="cls-1" points="1258.45 95.86 1260.2 95.86 1263.55 100.67 1263.55 100.67 1263.55 95.86 1265.15 95.86 1265.15 103.73 1263.4 103.73 1260.05 99.06 1260.05 99.06 1260.05 103.73 1258.45 103.73 1258.45 95.86"/><polyline class="cls-1" points="1267.48 95.86 1272.87 95.86 1272.87 97.17 1269.52 97.17 1269.52 99.21 1272.29 99.21 1272.29 100.38 1269.52 100.38 1269.52 102.56 1273.16 102.56 1273.16 103.73 1267.48 103.73 1267.48 95.86"/><path class="cls-1" d="M1006.85,119.9a5.85,5.85,0,0,1,1.75-4.08,5,5,0,0,1,3.64-1.6,3.79,3.79,0,0,1,3.35,1.89l-.58.29a2.82,2.82,0,0,0-2.77-1.6,4.55,4.55,0,0,0-3.06,1.31,5.29,5.29,0,0,0-1.6,3.79,2.91,2.91,0,0,0,3.06,3.06,4.58,4.58,0,0,0,3.06-1.31l.44.43a5.19,5.19,0,0,1-3.5,1.46,3.64,3.64,0,0,1-3.79-3.64"/><path class="cls-1" d="M1023.17,119.46a4,4,0,0,1-1.17,2.77,4.12,4.12,0,0,1-2.76,1.31,2.76,2.76,0,0,1-2.92-2.91,4,4,0,0,1,1.17-2.77,3.73,3.73,0,0,1,2.77-1.17,2.65,2.65,0,0,1,2.91,2.77m-1.75,2.48a3.55,3.55,0,0,0,1-2.48,2.14,2.14,0,0,0-2.33-2.33,4.19,4.19,0,0,0-2.19.87,3.55,3.55,0,0,0-1,2.48,2.15,2.15,0,0,0,2.34,2.33A2.35,2.35,0,0,0,1021.42,121.94Z"/><path class="cls-1" d="M1026.52,116.84h.58l-.29,1.16a3,3,0,0,1,2.48-1.31,2,2,0,0,1,2.18,2,2,2,0,0,1-.14.88l-1,3.64h-.59l1-3.79c0-.29.15-.58.15-.87,0-1-.58-1.61-1.75-1.61a3.21,3.21,0,0,0-2.77,2.48l-1,3.64h-.58l1.75-6.26"/><path class="cls-1" d="M1035.11,116.84h.59l-.29,1.16a3,3,0,0,1,2.47-1.31,2,2,0,0,1,2.19,2,1.84,1.84,0,0,1-.15.88l-1,3.64h-.58l1-3.79c0-.29.15-.58.15-.87,0-1-.59-1.61-1.75-1.61a3.2,3.2,0,0,0-2.77,2.48l-1,3.93h-.58l1.74-6.55"/><path class="cls-1" d="M1041.82,121.65a2.51,2.51,0,0,1,2.91-2.48,6.18,6.18,0,0,1,2.48.44v-.15a6.85,6.85,0,0,0,.14-.73c0-1-.73-1.6-2-1.6a7.58,7.58,0,0,0-1.89.29l-.15-.58a4.69,4.69,0,0,1,2-.44c1.61,0,2.48.73,2.48,2a1.78,1.78,0,0,1-.15.87l-1,3.79H1046l.29-1.16a3.28,3.28,0,0,1-2.62,1.31,1.53,1.53,0,0,1-1.89-1.6m5.24-.88.15-.58a11.34,11.34,0,0,0-2.48-.29,3.14,3.14,0,0,0-1.75.58,1.67,1.67,0,0,0-.44,1.17c0,.87.59,1.31,1.61,1.31A3.26,3.26,0,0,0,1047.06,120.77Z"/><path class="cls-1" d="M1051.72,116.84h.59l-1.75,6.55H1050l1.75-6.55m.59-2.62h.72l-.14.87h-.73Z"/><path class="cls-1" d="M1053.33,122.37l.43-.43a3.41,3.41,0,0,0,2.48,1c.87,0,1.75-.59,1.75-1.31,0-.44-.29-.88-1.46-1.32s-1.89-.87-1.89-1.74c0-1,1-1.9,2.47-1.9a4.09,4.09,0,0,1,2.33.88l-.43.43a3.2,3.2,0,0,0-2-.72c-1.17,0-1.75.58-1.75,1.16s.29.87,1.46,1.31,1.74,1,1.74,1.75a2.29,2.29,0,0,1-2.47,2,3.88,3.88,0,0,1-2.62-1.17"/><path class="cls-1" d="M1060.32,122.37l.44-.43a3.38,3.38,0,0,0,2.47,1c.88,0,1.75-.59,1.75-1.31,0-.44-.29-.88-1.46-1.32s-1.89-.87-1.89-1.74c0-1,1-1.9,2.48-1.9a4.14,4.14,0,0,1,2.33.88l-.44.43a3.2,3.2,0,0,0-2-.72c-1.17,0-1.75.58-1.75,1.16s.29.87,1.46,1.31,1.75,1,1.75,1.75a2.3,2.3,0,0,1-2.48,2,3.92,3.92,0,0,1-2.62-1.17"/><path class="cls-1" d="M1067.6,121.65a3.08,3.08,0,0,1,.58-1.61,3.12,3.12,0,0,1,2.34-.87,6.1,6.1,0,0,1,2.47.44v-.15a6.45,6.45,0,0,0,.15-.73c0-1-.73-1.6-2-1.6a7.73,7.73,0,0,0-1.9.29l-.14-.58a4.66,4.66,0,0,1,2-.44c1.6,0,2.48.73,2.48,2a1.78,1.78,0,0,1-.15.87l-1,3.79h-.58l.29-1.16a3.3,3.3,0,0,1-2.62,1.31,1.54,1.54,0,0,1-1.9-1.6m5.1-.88.15-.58a11.34,11.34,0,0,0-2.48-.29,3.14,3.14,0,0,0-1.75.58,1.67,1.67,0,0,0-.44,1.17c0,.87.59,1.31,1.61,1.31A3,3,0,0,0,1072.7,120.77Z"/><path class="cls-1" d="M1077.36,116.84h.59l-.3,1.16a3.07,3.07,0,0,1,2.48-1.31,2,2,0,0,1,2.19,2,1.84,1.84,0,0,1-.15.88l-1,3.64h-.58l1-3.79c0-.29.14-.58.14-.87,0-1-.58-1.61-1.74-1.61a3.19,3.19,0,0,0-2.77,2.48l-1,3.93h-.59l1.75-6.55"/><path class="cls-1" d="M1084.36,120.63a4.07,4.07,0,0,1,1.16-2.92,3.63,3.63,0,0,1,2.62-1.16,2.86,2.86,0,0,1,2.63,1.6l-.59.29a2.27,2.27,0,0,0-2-1.31,2.67,2.67,0,0,0-2,.87,3.85,3.85,0,0,0-1,2.48,2.18,2.18,0,0,0,2.19,2.33,4.12,4.12,0,0,0,2.18-.87l.44.43a4,4,0,0,1-2.62,1.17,2.82,2.82,0,0,1-2.91-2.91"/><path class="cls-1" d="M1092.81,120.33v.44A2.07,2.07,0,0,0,1095,123a2.75,2.75,0,0,0,2.19-.88l.43.44a3.88,3.88,0,0,1-2.62,1,2.8,2.8,0,0,1-2.91-2.77,4.19,4.19,0,0,1,1.31-3.06,3.57,3.57,0,0,1,2.47-1.16,2.36,2.36,0,0,1,2.48,2.47,3,3,0,0,1-.14,1.17h-5.39m.14-.44h4.81v-.58a1.87,1.87,0,0,0-1.9-2,2.87,2.87,0,0,0-2,.87A6.53,6.53,0,0,0,1093,119.75Z"/><polyline class="cls-1" points="1102.71 119.17 1106.21 119.17 1105.92 119.9 1102.57 119.9 1102.71 119.17"/><path class="cls-1" d="M1115.1,114.22h.58l1.75,9h-.73l-.44-2.48H1111l-1.9,2.48h-.73l6.71-9m1.16,6-1-5.25-3.79,5.25Z"/><path class="cls-1" d="M1119.76,120.63a4.07,4.07,0,0,1,1.16-2.92,3.65,3.65,0,0,1,2.62-1.16,2.84,2.84,0,0,1,2.63,1.6l-.59.29a2.27,2.27,0,0,0-2-1.31,2.63,2.63,0,0,0-2,.87,3.8,3.8,0,0,0-1,2.48,2.18,2.18,0,0,0,2.18,2.33,4.19,4.19,0,0,0,2.19-.87l.43.43a4,4,0,0,1-2.62,1.17,2.75,2.75,0,0,1-2.91-2.91"/><path class="cls-1" d="M1128.06,122.08a.86.86,0,0,1,.15-.58l1.16-4.22h-1l.15-.59h1l.58-2h.58l-.58,2h2.33l-.14.59H1130l-1.16,4.22v.58c0,.59.44.73,1,.73a3,3,0,0,0,1-.14l-.15.58a1.9,1.9,0,0,1-.87.14c-1.17,0-1.75-.29-1.75-1.31"/><path class="cls-1" d="M1134.91,116.84h.58l-1.75,6.55h-.58l1.75-6.55m.58-2.62h.73l-.29.87h-.73Z"/><path class="cls-1" d="M1143.94,119.46a4,4,0,0,1-1.16,2.77,3.74,3.74,0,0,1-2.77,1.16,2.75,2.75,0,0,1-2.92-2.91,4,4,0,0,1,1.17-2.77,3.72,3.72,0,0,1,2.77-1.16,2.83,2.83,0,0,1,2.91,2.91m-1.6,2.48a3.55,3.55,0,0,0,1-2.48,2.14,2.14,0,0,0-2.33-2.33,4.15,4.15,0,0,0-2.19.87,3.55,3.55,0,0,0-1,2.48,2.14,2.14,0,0,0,2.33,2.33A2.49,2.49,0,0,0,1142.34,121.94Z"/><path class="cls-1" d="M1147.44,116.84h.58l-.29,1.16a3,3,0,0,1,2.47-1.31,2,2,0,0,1,2.19,2,1.84,1.84,0,0,1-.15.88l-1,3.64h-.58l1-3.79c0-.29.15-.58.15-.87,0-1-.59-1.61-1.75-1.61a3.2,3.2,0,0,0-2.77,2.48l-1,3.64h-.58l1.75-6.26"/><path class="cls-1" d="M1049.25,64.68h16c9.33,0,15,5.54,15,13.55v.15c0,9-7,13.84-15.88,13.84h-6.56V104h-8.59V64.68m15.44,19.67c4.37,0,6.85-2.62,6.85-6h0c0-3.94-2.63-6-7-6h-6.7V84.35Z"/><polyline class="cls-1" points="1084.07 64.68 1113.64 64.68 1113.64 72.26 1092.66 72.26 1092.66 80.27 1111.16 80.27 1111.16 87.85 1092.66 87.85 1092.66 96.15 1113.93 96.15 1113.93 103.87 1084.07 103.87 1084.07 64.68"/><path class="cls-1" d="M1116.11,84.35h0A20,20,0,0,1,1136.51,64c7.43,0,11.8,2.47,15.44,6l-5.53,6.26c-3.06-2.77-6.12-4.37-10.06-4.37-6.55,0-11.36,5.54-11.36,12.24v.15c0,6.7,4.66,12.38,11.36,12.38,4.52,0,7.29-1.75,10.35-4.66l5.53,5.53c-4.07,4.37-8.45,7-16,7a19.79,19.79,0,0,1-20.11-20.11"/><path class="cls-1" d="M1031.76,87.12c0,6.26-3.2,9.47-8.45,9.47s-8.45-3.35-8.45-9.62V64.68h-8.59V87.12c0,11.51,6.41,17.34,16.9,17.34s17.19-5.83,17.19-17.63V60l-8.74,2.92V87.12"/><polygon class="cls-2" points="1040.51 37.3 1040.51 59.88 1151.37 22.58 1151.37 0 1040.51 37.3"/><rect class="cls-1" x="1166.23" y="45.31" width="1.02" height="77.8"/><path class="cls-1" d="M41,83.78c-.35-6.57-.77-14.48-.7-20.35h-.21c-1.61,5.52-3.57,11.4-6,17.91l-8.32,22.87H21.2L13.57,81.76C11.33,75.11,9.44,69,8.12,63.43H8c-.14,5.87-.49,13.78-.91,20.84L5.81,104.49H0L3.29,57.34h7.76L19.1,80.15c2,5.8,3.57,11,4.76,15.88h.21c1.19-4.76,2.87-9.94,5-15.88l8.4-22.81H45.2l2.93,47.15H42.19Z"/><path class="cls-1" d="M61.15,88.68c.14,8.33,5.46,11.76,11.61,11.76a22.28,22.28,0,0,0,9.38-1.75l1,4.4a27.44,27.44,0,0,1-11.27,2.1c-10.42,0-16.65-6.85-16.65-17.07s6-18.26,15.88-18.26c11.06,0,14,9.73,14,16a23.23,23.23,0,0,1-.21,2.87ZM79.2,84.27c.07-3.91-1.61-10-8.53-10-6.23,0-9,5.74-9.45,10ZM80.67,56,72.13,66h-4.4l6.15-10Z"/><path class="cls-1" d="M92.77,79.8c0-3.5-.07-6.37-.28-9.17h5.39l.28,5.46h.21A11.68,11.68,0,0,1,109,69.86a10,10,0,0,1,9.58,6.79h.14a14,14,0,0,1,3.78-4.41A11.55,11.55,0,0,1,130,69.86c4.48,0,11.13,2.94,11.13,14.69v19.94h-6V85.32c0-6.5-2.38-10.42-7.34-10.42a8,8,0,0,0-7.28,5.6,10.13,10.13,0,0,0-.49,3.07v20.92h-6V84.2c0-5.38-2.38-9.3-7.06-9.3-3.85,0-6.65,3.08-7.63,6.16a8.47,8.47,0,0,0-.49,3v20.43h-6Z"/><path class="cls-1" d="M181.77,87.28c0,12.53-8.67,18-16.86,18-9.16,0-16.23-6.71-16.23-17.42,0-11.33,7.42-18,16.79-18C175.19,69.86,181.77,76.93,181.77,87.28Zm-26.86.35c0,7.42,4.26,13,10.28,13s10.28-5.53,10.28-13.16c0-5.73-2.86-13-10.14-13S154.91,81.2,154.91,87.63Z"/><path class="cls-1" d="M196.4,61.12a3.82,3.82,0,0,1-7.63,0,3.75,3.75,0,0,1,3.85-3.85A3.66,3.66,0,0,1,196.4,61.12Zm-6.86,43.37V70.63h6.16v33.86Z"/><path class="cls-1" d="M205.91,81.2c0-4-.07-7.42-.28-10.57H211l.21,6.65h.28c1.54-4.55,5.25-7.42,9.37-7.42a6.66,6.66,0,0,1,1.75.21v5.81a9.25,9.25,0,0,0-2.1-.21c-4.33,0-7.41,3.29-8.25,7.9a17.34,17.34,0,0,0-.28,2.87v18h-6.09Z"/><path class="cls-1" d="M231.52,88.68c.14,8.33,5.46,11.76,11.61,11.76a22.28,22.28,0,0,0,9.38-1.75l1.05,4.4a27.44,27.44,0,0,1-11.27,2.1c-10.42,0-16.65-6.85-16.65-17.07s6-18.26,15.88-18.26c11.06,0,14,9.73,14,16a23.23,23.23,0,0,1-.21,2.87Zm18-4.41c.07-3.91-1.61-10-8.54-10-6.22,0-8.95,5.74-9.44,10Z"/><path class="cls-1" d="M262.3,98.2a16.14,16.14,0,0,0,8.12,2.45c4.48,0,6.58-2.24,6.58-5s-1.75-4.55-6.3-6.23c-6.09-2.17-9-5.53-9-9.58,0-5.46,4.41-9.94,11.69-9.94a16.87,16.87,0,0,1,8.32,2.1l-1.54,4.48a13.11,13.11,0,0,0-6.92-2c-3.64,0-5.67,2.1-5.67,4.62,0,2.8,2,4.05,6.44,5.73,5.87,2.24,8.88,5.18,8.88,10.22,0,6-4.61,10.14-12.66,10.14a19.25,19.25,0,0,1-9.51-2.31Z"/><path class="cls-1" d="M309.11,88.68c.14,8.33,5.46,11.76,11.62,11.76a22.26,22.26,0,0,0,9.37-1.75l1,4.4a27.42,27.42,0,0,1-11.26,2.1c-10.43,0-16.66-6.85-16.66-17.07s6-18.26,15.89-18.26c11.05,0,14,9.73,14,16a23.23,23.23,0,0,1-.21,2.87Zm18.05-4.41c.07-3.91-1.61-10-8.53-10-6.23,0-9,5.74-9.45,10Z"/><path class="cls-1" d="M348.15,60.91v9.72H357v4.69h-8.82V93.58c0,4.2,1.19,6.58,4.62,6.58a13.7,13.7,0,0,0,3.57-.42l.28,4.61a15.08,15.08,0,0,1-5.46.84,8.54,8.54,0,0,1-6.65-2.59c-1.74-1.81-2.37-4.82-2.37-8.81V75.32h-5.25V70.63h5.25V62.52Z"/><path class="cls-1" d="M386.14,60.91v9.72H395v4.69h-8.82V93.58c0,4.2,1.19,6.58,4.62,6.58a13.7,13.7,0,0,0,3.57-.42l.28,4.61a15.08,15.08,0,0,1-5.46.84,8.5,8.5,0,0,1-6.64-2.59c-1.75-1.81-2.38-4.82-2.38-8.81V75.32h-5.25V70.63h5.25V62.52Z"/><path class="cls-1" d="M401.89,54.82H408V76h.14a11.43,11.43,0,0,1,4.41-4.34,12.68,12.68,0,0,1,6.3-1.75c4.54,0,11.82,2.8,11.82,14.48v20.15h-6.16V85c0-5.45-2-10.07-7.83-10.07a8.85,8.85,0,0,0-8.26,6.16,7.43,7.43,0,0,0-.42,2.93v20.43h-6.15Z"/><path class="cls-1" d="M444.15,88.68c.14,8.33,5.45,11.76,11.61,11.76a22.19,22.19,0,0,0,9.37-1.75l1.05,4.4a27.39,27.39,0,0,1-11.26,2.1c-10.42,0-16.65-6.85-16.65-17.07s6-18.26,15.88-18.26c11.05,0,14,9.73,14,16a23.23,23.23,0,0,1-.21,2.87Zm18.05-4.41c.07-3.91-1.61-10-8.54-10-6.23,0-9,5.74-9.44,10ZM451.84,56,458,66h-4.41l-8.53-10Z"/><path class="cls-1" d="M474.93,98.2a16.14,16.14,0,0,0,8.12,2.45c4.47,0,6.57-2.24,6.57-5s-1.75-4.55-6.29-6.23c-6.09-2.17-9-5.53-9-9.58,0-5.46,4.41-9.94,11.68-9.94a16.91,16.91,0,0,1,8.33,2.1l-1.54,4.48a13.19,13.19,0,0,0-6.93-2c-3.63,0-5.66,2.1-5.66,4.62,0,2.8,2,4.05,6.43,5.73,5.88,2.24,8.89,5.18,8.89,10.22,0,6-4.62,10.14-12.66,10.14a19.32,19.32,0,0,1-9.52-2.31Z"/><path class="cls-1" d="M506.91,88.68c.14,8.33,5.45,11.76,11.61,11.76a22.22,22.22,0,0,0,9.37-1.75l1.05,4.4a27.39,27.39,0,0,1-11.26,2.1c-10.42,0-16.65-6.85-16.65-17.07s6-18.26,15.88-18.26c11.05,0,14,9.73,14,16a23.23,23.23,0,0,1-.21,2.87ZM525,84.27c.07-3.91-1.61-10-8.54-10-6.23,0-8.95,5.74-9.44,10Z"/><path class="cls-1" d="M537.69,98.2a16.14,16.14,0,0,0,8.12,2.45c4.47,0,6.57-2.24,6.57-5s-1.75-4.55-6.29-6.23c-6.09-2.17-9-5.53-9-9.58,0-5.46,4.41-9.94,11.68-9.94a16.91,16.91,0,0,1,8.33,2.1l-1.54,4.48a13.19,13.19,0,0,0-6.93-2c-3.63,0-5.66,2.1-5.66,4.62,0,2.8,2,4.05,6.43,5.73,5.88,2.24,8.89,5.18,8.89,10.22,0,6-4.62,10.14-12.66,10.14a19.32,19.32,0,0,1-9.52-2.31Z"/><path class="cls-1" d="M610.31,54.82V95.75c0,3,.07,6.43.28,8.74h-5.52l-.28-5.87h-.14c-1.89,3.77-6,6.64-11.55,6.64-8.18,0-14.48-6.92-14.48-17.21-.07-11.26,6.93-18.19,15.18-18.19,5.18,0,8.68,2.45,10.22,5.18h.14V54.82Zm-6.15,29.59a10.79,10.79,0,0,0-.28-2.58A9.06,9.06,0,0,0,595,74.69c-6.36,0-10.14,5.6-10.14,13.08,0,6.86,3.36,12.53,10,12.53a9.26,9.26,0,0,0,9-7.35,10.7,10.7,0,0,0,.28-2.66Z"/><path class="cls-1" d="M628.72,56.57c-1.61,5.88-4.62,13.36-6.58,16.58l-3.92.49a99,99,0,0,0,4.13-16.44Z"/><path class="cls-1" d="M633.47,88.68c.14,8.33,5.46,11.76,11.62,11.76a22.26,22.26,0,0,0,9.37-1.75l1,4.4a27.42,27.42,0,0,1-11.26,2.1c-10.43,0-16.65-6.85-16.65-17.07s6-18.26,15.88-18.26c11,0,14,9.73,14,16a23.23,23.23,0,0,1-.21,2.87Zm18-4.41c.07-3.91-1.61-10-8.53-10-6.23,0-9,5.74-9.45,10Z"/><path class="cls-1" d="M667.76,70.63l4.82,7.28c1.26,1.89,2.31,3.64,3.43,5.52h.21c1.12-2,2.24-3.77,3.36-5.59l4.76-7.21H691L679.44,87l11.89,17.49h-7l-5-7.62c-1.33-2-2.45-3.85-3.64-5.88h-.14c-1.12,2-2.31,3.85-3.57,5.88l-4.89,7.62h-6.79l12-17.28L660.9,70.63Z"/><path class="cls-1" d="M699.66,88.68c.14,8.33,5.46,11.76,11.62,11.76a22.26,22.26,0,0,0,9.37-1.75l1.05,4.4a27.42,27.42,0,0,1-11.26,2.1c-10.43,0-16.65-6.85-16.65-17.07s6-18.26,15.88-18.26c11.05,0,14,9.73,14,16a23.23,23.23,0,0,1-.21,2.87Zm18.05-4.41c.07-3.91-1.61-10-8.53-10-6.23,0-9,5.74-9.45,10Z"/><path class="cls-1" d="M731.29,81.2c0-4-.07-7.42-.28-10.57h5.38l.21,6.65h.28c1.54-4.55,5.25-7.42,9.38-7.42a6.66,6.66,0,0,1,1.75.21v5.81a9.25,9.25,0,0,0-2.1-.21c-4.34,0-7.42,3.29-8.26,7.9a17.34,17.34,0,0,0-.28,2.87v18h-6.08Z"/><path class="cls-1" d="M777.6,103.23a22.63,22.63,0,0,1-9.72,2c-10.22,0-16.86-6.92-16.86-17.28s7.13-18,18.19-18a20.54,20.54,0,0,1,8.53,1.75l-1.4,4.76a14.21,14.21,0,0,0-7.13-1.61c-7.77,0-12,5.74-12,12.8,0,7.84,5,12.67,11.75,12.67a17.41,17.41,0,0,0,7.55-1.68Z"/><path class="cls-1" d="M791.67,61.12a3.82,3.82,0,0,1-7.63,0,3.75,3.75,0,0,1,3.85-3.85A3.66,3.66,0,0,1,791.67,61.12Zm-6.86,43.37V70.63H791v33.86Z"/><path class="cls-1" d="M825.32,103.23a22.67,22.67,0,0,1-9.72,2c-10.22,0-16.86-6.92-16.86-17.28s7.13-18,18.19-18a20.58,20.58,0,0,1,8.53,1.75l-1.4,4.76a14.27,14.27,0,0,0-7.13-1.61c-7.77,0-12,5.74-12,12.8,0,7.84,5,12.67,11.76,12.67a17.49,17.49,0,0,0,7.55-1.68Z"/><path class="cls-1" d="M835.54,88.68c.14,8.33,5.45,11.76,11.61,11.76a22.28,22.28,0,0,0,9.38-1.75l1.05,4.4a27.44,27.44,0,0,1-11.27,2.1c-10.42,0-16.65-6.85-16.65-17.07s6-18.26,15.88-18.26c11.06,0,14,9.73,14,16a23.23,23.23,0,0,1-.21,2.87Zm18.05-4.41c.07-3.91-1.61-10-8.54-10-6.22,0-8.95,5.74-9.44,10Z"/><path class="cls-1" d="M911.24,54.82V95.75c0,3,.07,6.43.28,8.74H906l-.28-5.87h-.14A12.53,12.53,0,0,1,894,105.26c-8.19,0-14.48-6.92-14.48-17.21-.07-11.26,6.92-18.19,15.18-18.19,5.18,0,8.67,2.45,10.21,5.18h.14V54.82Zm-6.16,29.59a10.79,10.79,0,0,0-.28-2.58,9,9,0,0,0-8.88-7.14c-6.37,0-10.15,5.6-10.15,13.08,0,6.86,3.36,12.53,10,12.53a9.25,9.25,0,0,0,9-7.35,10.7,10.7,0,0,0,.28-2.66Z"/><path class="cls-1" d="M924.88,88.68c.14,8.33,5.46,11.76,11.62,11.76a22.22,22.22,0,0,0,9.37-1.75l1,4.4a27.39,27.39,0,0,1-11.26,2.1c-10.43,0-16.65-6.85-16.65-17.07s6-18.26,15.88-18.26c11.05,0,14,9.73,14,16a23.23,23.23,0,0,1-.21,2.87Zm18-4.41c.07-3.91-1.6-10-8.53-10-6.23,0-9,5.74-9.45,10Z"/><path class="cls-1" d="M971.34,54.82h6.16v49.67h-6.16Z"/><path class="cls-1" d="M996,56.57c-1.61,5.88-4.62,13.36-6.58,16.58l-3.92.49a99,99,0,0,0,4.13-16.44Z"/></svg>