<svg id="Calque_1" data-name="Calque 1" xmlns="http://www.w3.org/2000/svg" viewBox="0 0 291.37 168.7"><defs><style>.cls-1{fill:#f6f6f6;}.cls-2{fill:#e42836;}.cls-3{fill:none;}</style></defs><path class="cls-1" d="M177.44,64.68V69.2c0,1.46.29,2.19,1.46,2.19.87,0,1.46-.59,1.46-2V64.54h1.89v5.1c0,.73,0,3.06-3.2,3.06-1.9,0-3.5-.88-3.5-3.06v-5h1.89"/><polyline class="cls-1" points="184.29 64.68 186.04 64.68 189.39 69.34 189.39 69.34 189.39 64.68 190.99 64.68 190.99 72.55 189.24 72.55 185.89 67.74 185.89 67.74 185.89 72.55 184.29 72.55 184.29 64.68"/><rect class="cls-1" x="193.18" y="64.68" width="2.04" height="7.87"/><polyline class="cls-1" points="196.82 64.68 199.15 64.68 201.19 70.36 201.19 70.36 203.23 64.68 204.54 64.68 201.77 72.55 199.73 72.55 196.82 64.68"/><polyline class="cls-1" points="206 64.68 211.39 64.68 211.39 66 208.18 66 208.18 67.89 210.8 67.89 210.8 69.05 208.18 69.05 208.18 71.24 211.68 71.24 211.68 72.55 206 72.55 206 64.68"/><path class="cls-1" d="M213.57,64.68h3.79a2,2,0,0,1,2.19,2,2.26,2.26,0,0,1-1.46,2.19l2.48,3.64h-2.48l-1.75-3.2h-.73v3.2h-2V64.68m1.9,3.5h.72a1.28,1.28,0,0,0,1.17-1.31c0-.58-.29-.88-1.17-.88h-.58v2.19Z"/><path class="cls-1" d="M221.58,71a5.9,5.9,0,0,0,2.19.44c.58,0,1.31-.15,1.31-.88,0-1.31-3.5-1.46-3.5-3.93,0-1.61,1.46-2.19,2.77-2.19a13.14,13.14,0,0,1,2.33.29v1.46a4.66,4.66,0,0,0-2-.44c-.43,0-1,.15-1,.73,0,1.17,3.65,1.31,3.65,3.94,0,.72-.44,2.33-3.21,2.33-1,0-1.89-.15-2.47-.15V71"/><rect class="cls-1" x="228.87" y="64.68" width="2.04" height="7.87"/><polyline class="cls-1" points="235.28 66 232.51 66 232.51 64.68 240.23 64.68 240.23 66 237.47 66 237.47 72.55 235.28 72.55 235.28 66"/><path class="cls-1" d="M241.69,64.68h5.39V66h-3.35v1.9h2.77v1.16h-2.77v2.19h3.5v1.31h-5.69V64.68m2.92-2.18h1.6l-1.6,1.6h-1.17Z"/><path class="cls-1" d="M175.26,80.27h3.49c1.46,0,2.33.58,2.33,2a2.6,2.6,0,0,1-2.76,2.77h-1.17v3.06h-2V80.27m2.19,3.64c.73,0,1.75-.14,1.75-1.45a1,1,0,0,0-1.17-1,.88.88,0,0,0-.58.14Z"/><path class="cls-1" d="M184.14,80.27h2l3.06,7.87h-2.18l-.73-2h-3.06l-.73,2h-1.46l3.06-7.87m1.75,4.66-1-2.76-1,2.76Z"/><path class="cls-1" d="M190.7,80.27h3.79a2,2,0,0,1,2.18,2,2.25,2.25,0,0,1-1.45,2.19l2.47,3.64h-2.47l-1.75-3.21h-.73v3.21h-2V80.27m2,3.5h.73a1.27,1.27,0,0,0,1.16-1.31c0-.59-.29-.88-1.16-.88h-.58v2.19Z"/><rect class="cls-1" x="199.15" y="80.27" width="2.04" height="7.87"/><path class="cls-1" d="M203.23,86.54a5.87,5.87,0,0,0,2.18.43c.59,0,1.32-.14,1.32-.87,0-1.31-3.5-1.46-3.5-3.93,0-1.61,1.46-2.19,2.77-2.19a13.25,13.25,0,0,1,2.33.29v1.46a4.66,4.66,0,0,0-2-.44c-.44,0-1,.15-1,.73,0,1.17,3.64,1.31,3.64,3.93,0,.73-.44,2.33-3.2,2.33-1,0-1.9-.14-2.48-.14v-1.6"/><rect class="cls-1" x="209.93" y="84.21" width="2.33" height="1.17"/><polyline class="cls-1" points="214.16 80.27 219.54 80.27 219.54 81.58 216.19 81.58 216.19 83.48 218.96 83.48 218.96 84.64 216.19 84.64 216.19 86.83 219.69 86.83 219.69 88.14 214.16 88.14 214.16 80.27"/><path class="cls-1" d="M221.15,86.54a5.84,5.84,0,0,0,2.18.43c.59,0,1.31-.14,1.31-.87,0-1.31-3.49-1.46-3.49-3.93,0-1.61,1.45-2.19,2.77-2.19a13.37,13.37,0,0,1,2.33.29v1.46a4.69,4.69,0,0,0-2-.44c-.44,0-1,.15-1,.73,0,1.17,3.64,1.31,3.64,3.93,0,.73-.44,2.33-3.21,2.33-1,0-1.89-.14-2.47-.14v-1.6"/><polyline class="cls-1" points="230.47 81.58 227.7 81.58 227.7 80.27 235.43 80.27 235.43 81.58 232.66 81.58 232.66 88.14 230.47 88.14 230.47 81.58"/><path class="cls-1" d="M247.66,81.87a6.61,6.61,0,0,0-2.33-.43c-1.89,0-2.48,1.31-2.48,2.77,0,1.74.88,2.91,2.77,2.91a6.82,6.82,0,0,0,2.33-.58V88a9.39,9.39,0,0,1-2.91.44c-2.62,0-4.22-1.46-4.22-4.08s1.74-4.08,4.22-4.08a16.82,16.82,0,0,1,2.77.29v1.31"/><path class="cls-1" d="M249.56,80.27h3.78a2,2,0,0,1,2.19,2,2.24,2.24,0,0,1-1.46,2.19l2.48,3.64h-2.48l-1.75-3.21h-.72v3.21h-2V80.27m1.89,3.5h.73a1.27,1.27,0,0,0,1.16-1.31c0-.59-.29-.88-1.16-.88h-.58v2.19Z"/><path class="cls-1" d="M257.86,80.27h5.39v1.31H259.9v1.9h2.77v1.16H259.9v2.19h3.5v1.31h-5.54V80.27m2.77-2h1.6l-1.46,1.6h-1.31Z"/><polyline class="cls-1" points="267.48 81.58 264.56 81.58 264.56 80.27 272.43 80.27 272.43 81.58 269.51 81.58 269.51 88.14 267.48 88.14 267.48 81.58"/><polyline class="cls-1" points="273.88 80.27 279.28 80.27 279.28 81.58 275.93 81.58 275.93 83.48 278.69 83.48 278.69 84.64 275.93 84.64 275.93 86.83 279.57 86.83 279.57 88.14 273.88 88.14 273.88 80.27"/><rect class="cls-1" x="281.32" y="80.27" width="2.04" height="7.87"/><polyline class="cls-1" points="285.69 80.27 287.87 80.27 287.87 86.83 291.37 86.83 291.37 88.14 285.69 88.14 285.69 80.27"/><polyline class="cls-1" points="174.53 95.86 176.71 95.86 178.75 101.69 178.9 101.69 180.94 95.86 182.25 95.86 179.48 103.73 177.44 103.73 174.53 95.86"/><path class="cls-1" d="M185.16,95.86h2l3.06,7.87h-2.18l-.73-2h-3.06l-.73,2H182.1l3.06-7.87m1.75,4.66-1-2.77-1,2.77Z"/><polyline class="cls-1" points="191.72 95.86 193.91 95.86 193.91 102.56 197.4 102.56 197.4 103.73 191.72 103.73 191.72 95.86"/><path class="cls-1" d="M203.23,95.86h4.37A3.46,3.46,0,0,1,211,99.65c0,2.77-1.6,4.08-3.64,4.08h-3.94V95.86m1.9,6.56c.29,0,.73.14,1,.14,1.75,0,2.33-1.31,2.33-2.77,0-1.16-.29-2.62-2.19-2.62h-1v5.25Z"/><polyline class="cls-1" points="212.55 95.86 217.94 95.86 217.94 97.17 214.59 97.17 214.59 99.21 217.36 99.21 217.36 100.38 214.59 100.38 214.59 102.56 218.23 102.56 218.23 103.73 212.55 103.73 212.55 95.86"/><polyline class="cls-1" points="224.21 95.86 226.97 95.86 228.58 100.96 228.58 100.96 230.33 95.86 232.66 95.86 232.66 103.73 230.76 103.73 230.76 98.34 230.76 98.34 229.01 103.29 227.41 103.29 225.81 98.19 225.81 98.19 225.81 103.73 224.21 103.73 224.21 95.86"/><path class="cls-1" d="M237.17,95.86h2l3.06,7.87h-2.18l-.73-2H236.3l-.73,2h-1.46l3.06-7.87m1.75,4.66-1-2.77-1,2.77Z"/><path class="cls-1" d="M243.73,95.86h3.79a2,2,0,0,1,2.18,2,2.23,2.23,0,0,1-1.45,2.18l2.47,3.65h-2.47l-1.75-3.21h-.73v3.21h-2V95.86m2,3.64h.73a1.27,1.27,0,0,0,1.16-1.31c0-.58-.29-.87-1.16-.87h-.59V99.5Z"/><polyline class="cls-1" points="252.18 95.86 253.93 95.86 257.28 100.67 257.28 100.67 257.28 95.86 258.88 95.86 258.88 103.73 257.13 103.73 253.78 99.06 253.78 99.06 253.78 103.73 252.18 103.73 252.18 95.86"/><polyline class="cls-1" points="261.21 95.86 266.6 95.86 266.6 97.17 263.25 97.17 263.25 99.21 266.02 99.21 266.02 100.38 263.25 100.38 263.25 102.56 266.89 102.56 266.89 103.73 261.21 103.73 261.21 95.86"/><path class="cls-1" d="M.58,119.9a5.85,5.85,0,0,1,1.75-4.08A5,5,0,0,1,6,114.22a3.78,3.78,0,0,1,3.35,1.89l-.58.29A2.82,2.82,0,0,0,6,114.8a4.55,4.55,0,0,0-3.06,1.31,5.29,5.29,0,0,0-1.6,3.79A2.91,2.91,0,0,0,4.37,123a4.58,4.58,0,0,0,3.06-1.31l.44.43a5.19,5.19,0,0,1-3.5,1.46A3.64,3.64,0,0,1,.58,119.9"/><path class="cls-1" d="M16.9,119.46a4,4,0,0,1-1.17,2.77A4.1,4.1,0,0,1,13,123.54a2.76,2.76,0,0,1-2.92-2.91,4,4,0,0,1,1.17-2.77A3.73,3.73,0,0,1,14,116.69a2.65,2.65,0,0,1,2.91,2.77m-1.75,2.48a3.55,3.55,0,0,0,1-2.48,2.14,2.14,0,0,0-2.33-2.33,4.19,4.19,0,0,0-2.19.87,3.55,3.55,0,0,0-1,2.48A2.15,2.15,0,0,0,13,122.81,2.35,2.35,0,0,0,15.15,121.94Z"/><path class="cls-1" d="M20.25,116.84h.58L20.54,118A3,3,0,0,1,23,116.69a2,2,0,0,1,2.18,2,2,2,0,0,1-.14.88l-1,3.64h-.58l1-3.79c0-.29.15-.58.15-.87,0-1-.58-1.61-1.75-1.61a3.21,3.21,0,0,0-2.77,2.48l-1,3.64H18.5l1.75-6.26"/><path class="cls-1" d="M28.85,116.84h.58L29.14,118a3,3,0,0,1,2.47-1.31,2,2,0,0,1,2.19,2,1.84,1.84,0,0,1-.15.88l-1,3.64h-.58l1-3.79c0-.29.15-.58.15-.87,0-1-.59-1.61-1.75-1.61a3.2,3.2,0,0,0-2.77,2.48l-1,3.93H27.1l1.75-6.55"/><path class="cls-1" d="M35.55,121.65a2.51,2.51,0,0,1,2.91-2.48,6.18,6.18,0,0,1,2.48.44v-.15a6.85,6.85,0,0,0,.14-.73c0-1-.73-1.6-2-1.6a7.58,7.58,0,0,0-1.89.29l-.15-.58a4.69,4.69,0,0,1,2-.44c1.61,0,2.48.73,2.48,2a1.78,1.78,0,0,1-.15.87l-1,3.79h-.58l.29-1.16a3.28,3.28,0,0,1-2.62,1.31,1.53,1.53,0,0,1-1.89-1.6m5.24-.88.15-.58a11.34,11.34,0,0,0-2.48-.29,3.14,3.14,0,0,0-1.75.58,1.66,1.66,0,0,0-.43,1.17c0,.87.58,1.31,1.6,1.31A3.26,3.26,0,0,0,40.79,120.77Z"/><path class="cls-1" d="M45.45,116.84H46l-1.75,6.55h-.58l1.74-6.55m.59-2.62h.72l-.14.87h-.73Z"/><path class="cls-1" d="M47.06,122.37l.43-.43A3.42,3.42,0,0,0,50,123c.87,0,1.75-.59,1.75-1.31,0-.44-.29-.88-1.46-1.32s-1.89-.87-1.89-1.74c0-1,1-1.9,2.47-1.9a4.09,4.09,0,0,1,2.33.88l-.43.43a3.2,3.2,0,0,0-2-.72c-1.17,0-1.75.58-1.75,1.16s.29.87,1.46,1.31,1.74,1,1.74,1.75a2.29,2.29,0,0,1-2.47,2,3.88,3.88,0,0,1-2.62-1.17"/><path class="cls-1" d="M54.05,122.37l.44-.43A3.38,3.38,0,0,0,57,123c.88,0,1.75-.59,1.75-1.31,0-.44-.29-.88-1.46-1.32s-1.89-.87-1.89-1.74c0-1,1-1.9,2.48-1.9a4.14,4.14,0,0,1,2.33.88l-.44.43a3.2,3.2,0,0,0-2-.72c-1.16,0-1.75.58-1.75,1.16s.29.87,1.46,1.31,1.75,1,1.75,1.75a2.3,2.3,0,0,1-2.48,2,3.92,3.92,0,0,1-2.62-1.17"/><path class="cls-1" d="M61.33,121.65a3,3,0,0,1,.59-1.61,3.08,3.08,0,0,1,2.33-.87,6.1,6.1,0,0,1,2.47.44v-.15a6.45,6.45,0,0,0,.15-.73c0-1-.73-1.6-2-1.6a7.58,7.58,0,0,0-1.89.29l-.15-.58a4.66,4.66,0,0,1,2-.44c1.6,0,2.48.73,2.48,2a1.78,1.78,0,0,1-.15.87l-1,3.79h-.58l.29-1.16a3.3,3.3,0,0,1-2.62,1.31,1.54,1.54,0,0,1-1.9-1.6m5.1-.88.15-.58a11.34,11.34,0,0,0-2.48-.29,3.14,3.14,0,0,0-1.75.58,1.66,1.66,0,0,0-.43,1.17c0,.87.58,1.31,1.6,1.31A3,3,0,0,0,66.43,120.77Z"/><path class="cls-1" d="M71.09,116.84h.59L71.39,118a3,3,0,0,1,2.47-1.31,2,2,0,0,1,2.19,2,1.84,1.84,0,0,1-.15.88l-1,3.64H74.3l1-3.79c0-.29.14-.58.14-.87,0-1-.58-1.61-1.74-1.61A3.2,3.2,0,0,0,71,119.46l-1,3.93h-.58l1.74-6.55"/><path class="cls-1" d="M78.09,120.63a4.07,4.07,0,0,1,1.16-2.92,3.63,3.63,0,0,1,2.62-1.16,2.84,2.84,0,0,1,2.63,1.6l-.59.29a2.27,2.27,0,0,0-2-1.31,2.67,2.67,0,0,0-2,.87,3.85,3.85,0,0,0-1,2.48A2.18,2.18,0,0,0,81,122.81a4.19,4.19,0,0,0,2.19-.87l.43.43A4,4,0,0,1,81,123.54a2.82,2.82,0,0,1-2.91-2.91"/><path class="cls-1" d="M86.54,120.33v.44A2.07,2.07,0,0,0,88.72,123a2.75,2.75,0,0,0,2.19-.88l.43.44a3.87,3.87,0,0,1-2.62,1,2.8,2.8,0,0,1-2.91-2.77,4.19,4.19,0,0,1,1.31-3.06,3.58,3.58,0,0,1,2.48-1.16A2.36,2.36,0,0,1,92.07,119a3,3,0,0,1-.14,1.17H86.54m.14-.44h4.81v-.58a1.87,1.87,0,0,0-1.89-2,2.88,2.88,0,0,0-2,.87A6.53,6.53,0,0,0,86.68,119.75Z"/><polyline class="cls-1" points="96.44 119.17 99.94 119.17 99.65 119.9 96.3 119.9 96.44 119.17"/><path class="cls-1" d="M108.83,114.22h.58l1.75,9h-.73l-.44-2.48h-5.24l-1.9,2.48h-.73l6.71-9m1.16,6-1-5.25-3.79,5.25Z"/><path class="cls-1" d="M113.49,120.63a4.07,4.07,0,0,1,1.16-2.92,3.66,3.66,0,0,1,2.63-1.16,2.84,2.84,0,0,1,2.62,1.6l-.58.29a2.28,2.28,0,0,0-2-1.31,2.64,2.64,0,0,0-2,.87,3.8,3.8,0,0,0-1,2.48,2.18,2.18,0,0,0,2.18,2.33,4.15,4.15,0,0,0,2.19-.87l.43.43a3.93,3.93,0,0,1-2.62,1.17,2.75,2.75,0,0,1-2.91-2.91"/><path class="cls-1" d="M121.79,122.08a.86.86,0,0,1,.15-.58l1.16-4.22h-1l.15-.59h1l.58-2h.58l-.58,2h2.33l-.14.59h-2.33l-1.17,4.22v.58c0,.59.44.73,1,.73a3,3,0,0,0,1-.14l-.15.58a1.9,1.9,0,0,1-.87.14c-1.17,0-1.75-.29-1.75-1.31"/><path class="cls-1" d="M128.64,116.84h.58l-1.75,6.55h-.58l1.75-6.55m.58-2.62H130l-.29.87h-.73Z"/><path class="cls-1" d="M137.67,119.46a4,4,0,0,1-1.16,2.77,3.74,3.74,0,0,1-2.77,1.16,2.75,2.75,0,0,1-2.92-2.91,4,4,0,0,1,1.17-2.77,3.72,3.72,0,0,1,2.77-1.16,2.83,2.83,0,0,1,2.91,2.91m-1.6,2.48a3.55,3.55,0,0,0,1-2.48,2.14,2.14,0,0,0-2.33-2.33,4.15,4.15,0,0,0-2.19.87,3.55,3.55,0,0,0-1,2.48,2.14,2.14,0,0,0,2.33,2.33A2.49,2.49,0,0,0,136.07,121.94Z"/><path class="cls-1" d="M141.17,116.84h.58l-.29,1.16a3,3,0,0,1,2.48-1.31,2,2,0,0,1,2.18,2,2,2,0,0,1-.14.88l-1,3.64h-.59l1-3.79c0-.29.15-.58.15-.87,0-1-.58-1.61-1.75-1.61a3.2,3.2,0,0,0-2.77,2.48l-1,3.64h-.58l1.75-6.26"/><path class="cls-1" d="M43,64.68H59c9.33,0,15,5.54,15,13.55v.15c0,9-7,13.84-15.88,13.84H51.57V104H43V64.68M58.42,84.35c4.37,0,6.85-2.62,6.85-6h0c0-3.94-2.63-6-7-6h-6.7V84.35Z"/><polyline class="cls-1" points="77.8 64.68 107.37 64.68 107.37 72.26 86.39 72.26 86.39 80.27 104.89 80.27 104.89 87.85 86.39 87.85 86.39 96.15 107.66 96.15 107.66 103.87 77.8 103.87 77.8 64.68"/><path class="cls-1" d="M109.85,84.35h0A20,20,0,0,1,130.24,64c7.43,0,11.8,2.47,15.44,6l-5.53,6.26c-3.06-2.77-6.12-4.37-10.05-4.37-6.56,0-11.37,5.54-11.37,12.24v.15c0,6.7,4.66,12.38,11.37,12.38,4.51,0,7.28-1.75,10.34-4.66L146,97.46c-4.08,4.37-8.45,7-16,7a19.78,19.78,0,0,1-20.1-20.11"/><path class="cls-1" d="M25.49,87.12c0,6.26-3.2,9.47-8.45,9.47S8.6,93.24,8.6,87V64.68H0V87.12c0,11.51,6.41,17.34,16.9,17.34s17.19-5.83,17.19-17.63V60l-8.74,2.92V87.12"/><polygon class="cls-2" points="34.24 37.3 34.24 59.88 145.1 22.58 145.1 0 34.24 37.3"/><rect class="cls-1" x="159.96" y="45.31" width="1.02" height="77.8"/><rect class="cls-3" y="-3.21" width="358.38" height="174.82"/></svg>